<?xml version="1.0" encoding="utf-8"?>
<!-- Generator: Adobe Illustrator 25.0.1, SVG Export Plug-In . SVG Version: 6.00 Build 0)  -->
<svg version="1.1" id="Layer_1" xmlns="http://www.w3.org/2000/svg" xmlns:xlink="http://www.w3.org/1999/xlink" x="0px" y="0px"
	 viewBox="0 0 29 32" style="enable-background:new 0 0 29 32;" xml:space="preserve">
<style type="text/css">
	.st0{fill:none;stroke:#333333;stroke-width:2;stroke-linecap:round;stroke-linejoin:round;}
</style>
<g id="Icon_feather-box" transform="translate(-3.5 -1.961)">
	<path id="Path_71" class="st0" d="M31.4,24V12c0-1.1-0.6-2.1-1.5-2.6l-10.5-6c-0.9-0.5-2.1-0.5-3,0l-10.5,6C5,9.9,4.4,10.9,4.4,12
		v12C4.4,25,5,26,5.9,26.5l10.5,6c0.9,0.5,2.1,0.5,3,0l10.5-6C30.8,26,31.4,25,31.4,24z"/>
	<path id="Path_72" class="st0" d="M4.8,10.4L17.9,18L31,10.4"/>
	<path id="Path_73" class="st0" d="M17.9,33.1V18"/>
</g>
</svg>
