<?xml version="1.0" encoding="utf-8"?>
<!-- Generator: Adobe Illustrator 25.0.1, SVG Export Plug-In . SVG Version: 6.00 Build 0)  -->
<svg version="1.1" id="Layer_1" xmlns="http://www.w3.org/2000/svg" xmlns:xlink="http://www.w3.org/1999/xlink" x="0px" y="0px"
	 viewBox="0 0 32 28" style="enable-background:new 0 0 32 28;" xml:space="preserve">
<style type="text/css">
	.st0{fill:#333333;}
</style>
<g id="Icon_ionic-md-paper" transform="translate(-2.25 -4.5)">
	<path id="Path_81" class="st0" d="M32.3,5H13.1c-0.6,0-1.1,0.5-1.1,1.2v2.2H4.8c-1.6,0-2.9,1.3-2.9,3V26c0,3.3,2.7,6.1,6.1,6.1
		h19.7c3.2,0,5.8-2.6,5.8-5.8V6.2C33.4,5.6,32.9,5.1,32.3,5z M12,10.7v13.5h-3V12c0-0.5-0.1-0.9-0.2-1.4H12z M10.8,28.6
		C10.1,29.4,9,29.8,8,29.8c-2.1,0-3.8-1.7-3.8-3.8V12c0-0.7,0.6-1.3,1.3-1.3s1.3,0.6,1.3,1.3v13.3c0,0.6,0.5,1.1,1.1,1.1h4
		C11.9,27.3,11.5,28.1,10.8,28.6L10.8,28.6z M31.1,26.3c0,1.9-1.6,3.5-3.5,3.5H12.8c0.9-1.1,1.4-2.4,1.5-3.8V7.4h16.9V26.3z"/>
	<path id="Path_82" class="st0" d="M17.1,10.1h11.2V14H17.1V10.1z"/>
	<path id="Path_83" class="st0" d="M17.1,16.3h11.2v2.2H17.1V16.3z"/>
	<path id="Path_84" class="st0" d="M17.1,20.8h11.2V23H17.1V20.8z"/>
	<path id="Path_85" class="st0" d="M28.3,25.3H17.1c0,0,0,2.2-0.6,2.2H27C28.3,27.5,28.3,26.1,28.3,25.3z"/>
</g>
</svg>
