<?xml version="1.0" encoding="utf-8"?>
<!-- Generator: Adobe Illustrator 25.0.1, SVG Export Plug-In . SVG Version: 6.00 Build 0)  -->
<svg version="1.1" id="Layer_1" xmlns="http://www.w3.org/2000/svg" xmlns:xlink="http://www.w3.org/1999/xlink" x="0px" y="0px"
	 viewBox="0 0 35 34" style="enable-background:new 0 0 35 34;" xml:space="preserve">
<style type="text/css">
	.st0{fill:none;stroke:#333333;stroke-width:2;stroke-linecap:round;stroke-linejoin:round;}
</style>
<g id="Icon_feather-shopping-cart" transform="translate(-0.5 -0.5)">
	<path id="Path_86" class="st0" d="M14.9,31.8c0,0.8-0.7,1.5-1.5,1.5s-1.5-0.7-1.5-1.5c0-0.8,0.7-1.5,1.5-1.5l0,0
		C14.2,30.3,14.9,31,14.9,31.8z"/>
	<path id="Path_87" class="st0" d="M31.4,31.8c0,0.8-0.7,1.5-1.5,1.5s-1.5-0.7-1.5-1.5c0-0.8,0.7-1.5,1.5-1.5l0,0
		C30.7,30.3,31.4,31,31.4,31.8z"/>
	<path id="Path_88" class="st0" d="M1.4,1.8h6l4,20.1c0.3,1.4,1.5,2.4,3,2.4H29c1.5,0,2.7-1,3-2.4l2.4-12.6H8.9"/>
</g>
</svg>
