<?xml version="1.0" encoding="utf-8"?>
<!-- Generator: Adobe Illustrator 25.0.1, SVG Export Plug-In . SVG Version: 6.00 Build 0)  -->
<svg version="1.1" id="Layer_1" xmlns="http://www.w3.org/2000/svg" xmlns:xlink="http://www.w3.org/1999/xlink" x="0px" y="0px"
	 viewBox="0 0 27 29" style="enable-background:new 0 0 27 29;" xml:space="preserve">
<style type="text/css">
	.st0{fill:#333333;}
</style>
<g id="Group_17" transform="translate(-306 -466)">
	<path id="Icon_ionic-ios-return-left" class="st0" d="M306.4,488.4l4.2-4.2c0.2-0.2,0.4-0.3,0.7-0.3c0.3,0,0.5,0.1,0.7,0.3
		c0.4,0.4,0.4,1,0,1.4l0,0l-2.9,2.8h18.4c0.9,0,1.8-0.4,2.5-1c0.7-0.7,1-1.5,1-2.5v-3.4c0-0.5,0.4-1,1-1c0.5,0,1,0.4,1,1v3.4
		c0,3-2.5,5.5-5.5,5.5h-18.4l2.8,2.8c0.2,0.2,0.3,0.4,0.3,0.7c0,0.3-0.1,0.5-0.3,0.7l0,0c-0.2,0.2-0.4,0.3-0.7,0.3
		c-0.3,0-0.5-0.1-0.7-0.3l-4-4c-0.3-0.3-0.5-0.7-0.5-1.1C306,489.1,306.1,488.7,306.4,488.4z"/>
	<path id="Icon_ionic-ios-return-left-2" class="st0" d="M332.5,473.1l-4.2,4.2c-0.2,0.2-0.4,0.3-0.7,0.3c-0.3,0-0.5-0.1-0.7-0.3
		c-0.4-0.4-0.4-1,0-1.4l0,0l2.9-2.8h-18.4c-0.9,0-1.8,0.4-2.5,1c-0.7,0.7-1,1.5-1,2.5v3.4c0,0.5-0.4,1-1,1s-1-0.4-1-1v-3.4
		c0-3,2.5-5.5,5.5-5.5h18.4l-2.8-2.8c-0.2-0.2-0.3-0.4-0.3-0.7c0-0.3,0.1-0.5,0.3-0.7l0,0c0.2-0.2,0.4-0.3,0.7-0.3
		c0.3,0,0.5,0.1,0.7,0.3l4.1,4c0.3,0.3,0.5,0.7,0.5,1.1C333,472.4,332.8,472.8,332.5,473.1z"/>
</g>
</svg>
