<?xml version="1.0" encoding="utf-8"?>
<!-- Generator: Adobe Illustrator 25.0.1, SVG Export Plug-In . SVG Version: 6.00 Build 0)  -->
<svg version="1.1" id="Layer_1" xmlns="http://www.w3.org/2000/svg" xmlns:xlink="http://www.w3.org/1999/xlink" x="0px" y="0px"
	 viewBox="0 0 29 20" style="enable-background:new 0 0 29 20;" xml:space="preserve">
<style type="text/css">
	.st0{fill:#FFFFFF;}
</style>
<g>
	<path class="st0" d="M4.7,7.4c-0.1-3.3,1.9-6.2,5-7.1c3.5-1,6.2,0.2,8.3,3.2c1.7-1,3.4-1,5,0.3c1.6,1.2,1.9,2.9,1.4,4.8
		c0.1,0,0.2,0,0.2,0.1c2.5,0.6,4.2,2.8,4.3,5.4c0.1,2.8-1.9,5.2-4.7,5.7c-0.3,0.1-0.6,0.1-1,0.1c-5.4,0-10.8,0-16.3,0
		c-3.2,0-5.8-2.3-6.3-5.5c-0.4-2.9,1.2-5.7,4-6.8C4.6,7.4,4.7,7.4,4.7,7.4z M10.8,12.6c0.1,0.4,0.1,0.8,0.2,1.2
		c0.2,1.1,0.8,2,1.8,2.5c0.6,0.3,1.3,0.4,2,0.4c1.5-0.1,2.6-0.8,3.1-2.2c0.5-1.2,0.5-2.4,0.1-3.6c-0.4-1.2-1.2-1.9-2.4-2.2
		c-0.6-0.1-1.1-0.2-1.7-0.1c-1,0.1-1.7,0.6-2.3,1.4C11,10.7,10.8,11.6,10.8,12.6z M9.8,11.1c0-0.6-0.4-1.4-1-1.9
		C8.3,8.8,7.7,8.6,7.1,8.6C5.3,8.4,4,9.3,3.4,10.9c-0.3,0.9-0.3,1.9-0.1,2.8c0.3,1.9,1.6,2.8,3,2.9c2,0.1,3.2-1,3.5-2.6
		c0-0.1,0-0.3,0.1-0.4c-0.3,0-0.6,0-0.9,0c0,0-0.1,0.1-0.1,0.1c-0.1,0.3-0.2,0.6-0.3,0.8c-0.3,0.5-0.6,0.9-1.2,1.1
		c-1.2,0.3-2.4-0.1-2.8-1.5c-0.3-1-0.3-2,0-2.9c0.3-1,1-1.6,2-1.7c0.6,0,1.2,0,1.6,0.4c0.3,0.3,0.5,0.6,0.6,1C8.8,11,8.8,11,8.9,11
		C9.2,11.1,9.5,11.1,9.8,11.1z M20.1,11.6c0-0.2,0-0.4,0.1-0.7c0.1-0.5,0.4-1,1-1.1c0.2,0,0.4-0.1,0.6-0.1c0.5,0,0.9,0.2,1.2,0.7
		c0.2,0.5,0.2,1-0.1,1.5c-0.2,0.3-0.5,0.5-0.8,0.7c-0.5,0.4-1.1,0.7-1.7,1c-1,0.6-1.3,1.6-1.3,2.7c1.7,0,3.4,0,5.1,0
		c0-0.3,0-0.6,0-0.9c-1.3,0-2.7,0-4,0c0.1-0.3,0.2-0.6,0.4-0.8c0.3-0.3,0.6-0.5,1-0.7c0.6-0.4,1.2-0.7,1.7-1.1
		c0.5-0.4,0.8-0.9,0.9-1.5c0.1-0.9-0.4-2.2-1.6-2.4c-0.4-0.1-0.8-0.1-1.3-0.1c-0.4,0-0.8,0.2-1.2,0.4c-0.7,0.5-0.9,1.3-0.9,2.1
		c0,0,0.1,0.1,0.1,0.1C19.5,11.6,19.8,11.6,20.1,11.6z"/>
	<path class="st0" d="M14.9,15.7c-1.6,0-2.4-0.6-2.8-1.7c-0.1-0.2-0.1-0.4-0.1-0.5c-0.1-0.7-0.1-1.4,0.1-2.1
		c0.4-1.2,1.4-1.9,2.8-1.8c1.1,0.1,1.9,0.9,2.2,2.1c0.2,0.9,0.1,1.8-0.3,2.7C16.4,15.2,15.6,15.7,14.9,15.7z"/>
</g>
</svg>
