<?xml version="1.0" encoding="utf-8"?>
<!-- Generator: Adobe Illustrator 25.0.1, SVG Export Plug-In . SVG Version: 6.00 Build 0)  -->
<svg version="1.1" id="Layer_1" xmlns="http://www.w3.org/2000/svg" xmlns:xlink="http://www.w3.org/1999/xlink" x="0px" y="0px"
	 viewBox="0 0 26 23" style="enable-background:new 0 0 26 23;" xml:space="preserve">
<style type="text/css">
	.st0{fill:none;stroke:#FFFFFF;stroke-linecap:round;stroke-linejoin:round;}
</style>
<g id="Icon_feather-heart" transform="translate(0.5 0.5)">
	<path id="Icon_feather-heart-2" class="st0" d="M23,2.2c-2.5-2.5-6.7-2.5-9.2,0c0,0,0,0,0,0l-1.3,1.3l-1.3-1.3
		C8.7-0.3,4.6-0.4,2,2.2S-0.6,8.8,2,11.4c0,0,0,0,0.1,0.1l1.3,1.3l9.2,9.2l9.2-9.2l1.3-1.3C25.5,8.9,25.5,4.8,23,2.2
		C23,2.2,23,2.2,23,2.2L23,2.2z"/>
</g>
</svg>
