<?xml version="1.0" encoding="utf-8"?>
<!-- Generator: Adobe Illustrator 25.0.1, SVG Export Plug-In . SVG Version: 6.00 Build 0)  -->
<svg version="1.1" id="Layer_1" xmlns="http://www.w3.org/2000/svg" xmlns:xlink="http://www.w3.org/1999/xlink" x="0px" y="0px"
	 viewBox="0 0 240 54" style="enable-background:new 0 0 240 54;" xml:space="preserve">
<style type="text/css">
	.st0{fill:#FFFFFF;}
</style>
<g>
	<path class="st0" d="M42.1,0.6c0.1,2.4-0.1,4.7-0.5,7c-1.4,8.1-4.8,15.2-10.4,21.3c-0.4,0.5-0.9,0.9-1.3,1.4
		c5.5,7.5,11,15,16.5,22.5c-0.2,0-0.3,0-0.5,0c-4.6,0-9.3,0-13.9,0c-0.2,0-0.5-0.1-0.6-0.3c-5.9-8-11.8-16-17.7-24
		c0-0.1-0.1-0.1-0.1-0.2c0.2-0.1,0.4-0.3,0.5-0.4c2.2-1.7,4.5-3.3,6.5-5.1c5.3-4.9,8.5-10.9,9.4-18.1c0.2-1.4,0.2-2.8,0.3-4.1
		C34.3,0.6,38.2,0.6,42.1,0.6z"/>
	<path class="st0" d="M12.2,0.6c0,0.2,0,0.4,0,0.5c0,17,0,34.1,0,51.1c0,0.2,0,0.4,0,0.6c-4,0-8,0-12,0c0-0.2,0-0.3,0-0.5
		c0-17.1,0-34.2,0-51.2c0-0.2,0-0.3,0-0.5C4.2,0.6,8.2,0.6,12.2,0.6z"/>
	<path class="st0" d="M61.2,0.6c0,0.2,0.1,0.4,0.1,0.6c0,17,0,34.1,0,51.1c0,0.2,0,0.4,0,0.6c-3.8,0-7.5,0-11.3,0c0-0.2,0-0.4,0-0.5
		c0-17.1,0-34.1,0-51.2c0-0.2,0-0.4,0.1-0.5C53.7,0.6,57.4,0.6,61.2,0.6z"/>
	<path class="st0" d="M238.8,47.6c-0.1,0.5-0.2,1-0.4,1.5c-1,2.9-3.9,4.9-6.9,4.6c-3.3-0.3-5.8-2.6-6.2-5.8c-0.6-3.8,2-7.2,5.8-7.8
		c3.6-0.6,7,2,7.6,5.6c0,0.1,0.1,0.2,0.1,0.3C238.8,46.6,238.8,47.1,238.8,47.6z"/>
	<path class="st0" d="M209.7,19.1c0-0.8,0-1.5,0-2.3c3.6,0,7.2,0,10.7,0c0,12,0,24,0,36c-3.6,0-7.1,0-10.7,0c0-0.7,0-1.4,0-2.2
		c-5.6,3.5-11.5,4.3-17.7,2c-3.9-1.5-6.9-4-9.1-7.5c-4.5-7-3.9-16.1,1.5-22.5c3.1-3.7,7.1-6,11.9-6.6
		C201.1,15.3,205.5,16.3,209.7,19.1z M209.6,34.8c0-1.2-0.2-2.3-0.7-3.4c-2.3-5.4-9.2-7.5-14.4-4.4c-3.7,2.3-5.4,6.6-4.1,10.5
		c1.6,4.8,6.7,7.6,11.8,6.3C206.6,42.8,209.6,39.1,209.6,34.8z"/>
	<path class="st0" d="M95.5,19c0-0.8,0-1.5,0-2.2c3.6,0,7.2,0,10.8,0c0,12,0,24,0,36c-3.6,0-7.1,0-10.7,0c0-0.7,0-1.4,0-2.2
		c-4.6,3-9.4,4-14.7,2.9c-5.3-1.1-9.4-4-12.2-8.5c-4.5-7.1-3.7-16.2,1.7-22.6c2.1-2.4,4.5-4.1,7.5-5.3c2.9-1.1,5.9-1.5,9-1.2
		C90,16.2,92.8,17.3,95.5,19z M85.6,44.1c1.4,0,2.8-0.3,4.1-0.8c6.1-2.6,7.6-10,3.1-14.8c-3.7-3.9-10.4-4-14.3-0.1
		c-3.2,3.2-3.6,8.1-0.9,11.8C79.6,42.8,82.4,44,85.6,44.1z"/>
	<path class="st0" d="M176,52.9c-3.6,0-7.2,0-10.8,0c0-0.2,0-0.4,0-0.7c0-6.2,0-12.5,0-18.7c0-1.2-0.2-2.4-0.6-3.5
		c-0.8-2-2.2-3.3-4.3-3.9c-1.9-0.5-3.8-0.5-5.7,0.2c-3,1.1-4.5,3.3-4.9,6.5c-0.1,0.6-0.1,1.2-0.1,1.8c0,5.9,0,11.8,0,17.7
		c0,0.2,0,0.4,0,0.7c-3.6,0-7.2,0-10.9,0c0-12,0-24,0-36c3.6,0,7.1,0,10.7,0c0,1.3,0,2.5,0,3.9c0.1-0.1,0.2-0.1,0.2-0.2
		c2-2.5,4.6-3.9,7.7-4.4c3.7-0.6,7.4-0.3,10.8,1.4c4.8,2.3,7.4,6.2,7.8,11.5c0,0.5,0,1.1,0,1.6c0,7.2,0,14.4,0,21.6
		C176,52.4,176,52.6,176,52.9z"/>
	<path class="st0" d="M112,16.8c3.7,0,7.3,0,11,0c0,1.5,0,3,0,4.6c2.9-3.3,6.5-4.5,10.6-4.7c0,3.5,0,7,0,10.4
		c-1,0.2-2.1,0.3-3.1,0.5c-2.4,0.6-4.4,1.8-5.9,3.8c-1.1,1.3-1.6,2.9-1.6,4.6c0,5.4,0,10.8,0,16.2c0,0.2,0,0.4,0,0.6
		c-3.7,0-7.4,0-11.1,0C112,40.9,112,28.9,112,16.8z"/>
</g>
</svg>
