<?xml version="1.0" encoding="utf-8"?>
<!-- Generator: Adobe Illustrator 25.0.1, SVG Export Plug-In . SVG Version: 6.00 Build 0)  -->
<svg version="1.1" id="Layer_1" xmlns="http://www.w3.org/2000/svg" xmlns:xlink="http://www.w3.org/1999/xlink" x="0px" y="0px"
	 viewBox="0 0 56 35" style="enable-background:new 0 0 56 35;" xml:space="preserve">
<style type="text/css">
	.st0{fill:#333333;}
</style>
<path id="Icon_payment-mastercard" class="st0" d="M38.7,1.4c-4,0-7.8,1.5-10.8,4.1C21.2-0.4,11,0.1,5,6.8s-5.4,16.9,1.3,22.9
	c6.2,5.5,15.5,5.5,21.6,0c6.7,6,16.9,5.4,22.9-1.3s5.4-16.9-1.3-22.9C46.5,2.9,42.7,1.4,38.7,1.4z M7.6,21.5l0.9-5.9l-2.1,5.9H5.2
	v-5.9l-1.1,5.9H2.5l1.3-7.8h2.4v4.8L8,13.7h2.5l-1.3,7.8H7.6z M15,19.9c-0.1,0.4-0.2,0.8-0.3,1.2v0.4h-1.3v-0.7
	c-0.4,0.6-1.1,0.9-1.7,0.8c-0.4,0-0.8-0.1-1.1-0.4c-0.3-0.4-0.4-0.9-0.4-1.3c-0.1-0.7,0.2-1.3,0.7-1.7c0.7-0.5,1.5-0.7,2.3-0.7h0.7
	v-0.4c0-0.4-0.4-0.5-1.1-0.5c-0.6,0-1.2,0.1-1.7,0.3c0.1-0.4,0.2-0.8,0.3-1.3c0.6-0.2,1.2-0.4,1.9-0.4c1.5,0,2.3,0.6,2.3,1.9
	c0,0.4-0.1,0.8-0.1,1.2C15.2,18.7,15.1,19.3,15,19.9L15,19.9z M19.9,16.7c-0.4-0.1-0.8-0.1-1.2-0.1c-0.5,0-0.8,0.2-0.8,0.5
	c0,0.1,0,0.3,0.1,0.4l0.5,0.3c0.7,0.3,1.2,1,1.2,1.7c0,1.4-0.8,2.1-2.5,2.1c-0.6,0-1.2,0-1.7-0.1c0.1-0.4,0.2-0.8,0.3-1.5
	c0.5,0.1,1,0.2,1.5,0.3c0.6,0,0.9-0.2,0.9-0.5c0-0.1,0-0.3-0.1-0.4c-0.2-0.2-0.4-0.3-0.7-0.4c-0.7-0.3-1.2-1-1.2-1.7
	c0-1.4,0.8-2.1,2.4-2.1c0.5,0,1.1,0,1.6,0.1L19.9,16.7L19.9,16.7z M23.3,16.8h-0.9c0,0.4,0,0.8-0.1,1.2c0,0.2,0,0.4-0.1,0.5
	c0,0.2-0.1,0.4-0.2,0.5v0.5c0,0.3,0.1,0.5,0.4,0.5c0,0,0.1,0,0.1,0c0.2,0,0.4,0,0.5-0.1l-0.3,1.5c-0.4,0.1-0.8,0.1-1.2,0.1
	c-0.6,0.1-1.2-0.4-1.3-1c0-0.1,0-0.2,0-0.3c0-0.6,0.1-1.2,0.3-1.7l0.7-4.3h1.6l-0.1,0.9h0.8L23.3,16.8L23.3,16.8z M28.5,18.9h-3.3
	c0,0.3,0.1,0.7,0.3,0.9c0.3,0.3,0.8,0.4,1.2,0.4c0.6,0,1.2-0.2,1.7-0.5l-0.3,1.6c-0.6,0.2-1.1,0.3-1.7,0.3c-1.4,0.2-2.6-0.7-2.8-2.1
	c0-0.2,0-0.5,0-0.7c-0.1-1,0.2-1.9,0.8-2.7c0.4-0.7,1.2-1.1,2-1.1c0.6,0,1.3,0.2,1.7,0.7c0.4,0.4,0.6,1,0.5,1.6
	C28.7,17.9,28.6,18.4,28.5,18.9L28.5,18.9z M31.2,17.7c-0.3,1.2-0.5,2.5-0.7,3.7h-1.7l0.1-0.4c0.4-2.5,0.6-4.5,0.8-5.9h1.6l-0.1,0.9
	c0.2-0.3,0.5-0.6,0.8-0.8c0.2-0.3,0.5-0.3,0.8-0.1c-0.3,0.6-0.5,1.2-0.7,1.9C31.8,17,31.5,17.2,31.2,17.7L31.2,17.7z M37.2,21.3
	c-0.5,0.2-1,0.3-1.5,0.3c-0.8,0-1.6-0.3-2.1-0.9c-0.6-0.7-0.9-1.5-0.8-2.4c0-1.2,0.3-2.4,1.1-3.3c0.6-0.9,1.6-1.4,2.7-1.3
	c0.6,0,1.3,0.2,1.9,0.4l-0.3,1.6c-0.5-0.2-1-0.4-1.5-0.4c-0.6,0-1.2,0.3-1.6,0.8c-0.4,0.6-0.6,1.4-0.5,2.1c0,0.5,0.1,1,0.4,1.3
	c0.2,0.3,0.6,0.5,1.1,0.5c0.5,0,1-0.2,1.5-0.4L37.2,21.3z M43.2,17.5c0,0.2-0.1,0.4-0.1,0.7c-0.1,0.4-0.2,1-0.3,1.8
	c0,0.5-0.1,1-0.3,1.5h-1.3v-0.7c-0.4,0.6-1.1,0.9-1.7,0.8c-0.4,0-0.8-0.1-1.1-0.4c-0.3-0.4-0.4-0.9-0.4-1.3
	c-0.1-0.7,0.2-1.3,0.7-1.7c0.6-0.4,1.4-0.7,2.1-0.7h0.7c0.1-0.1,0.1-0.3,0.1-0.4c0-0.4-0.4-0.5-1.1-0.5c-0.6,0-1.2,0.1-1.7,0.3
	c0-0.5,0.1-0.9,0.3-1.3c0.6-0.2,1.2-0.4,1.9-0.4c1.5,0,2.3,0.6,2.3,1.9C43.2,17.1,43.2,17.3,43.2,17.5L43.2,17.5z M45.8,17.7
	c-0.3,1.2-0.5,2.5-0.7,3.7h-1.7l0.1-0.4c0.4-1.9,0.6-3.9,0.8-5.9h1.6c0,0.3,0,0.6-0.1,0.9c0.2-0.3,0.5-0.6,0.8-0.8
	c0.2-0.2,0.5-0.2,0.8-0.1c-0.4,0.5-0.6,1.2-0.7,1.9C46.4,17,46,17.2,45.8,17.7L45.8,17.7z M50.3,21.5l0.1-0.5
	c-0.4,0.4-0.9,0.7-1.5,0.7c-0.6,0.1-1.1-0.2-1.5-0.7c-0.4-0.5-0.7-1.2-0.7-1.9c0-1,0.3-2,0.9-2.8c0.4-0.7,1.1-1.1,1.9-1.1
	c0.6,0,1.2,0.3,1.6,0.8l0.3-2.3h1.7l-1.3,7.8H50.3z M11.8,19.6c0,0.4,0.2,0.7,0.5,0.7c0.3,0,0.6-0.1,0.8-0.4
	c0.3-0.3,0.4-0.8,0.4-1.2h-0.4C12.3,18.7,11.8,19,11.8,19.6L11.8,19.6z M26.9,16.7c-0.1,0-0.2-0.1-0.3-0.1h-0.3
	c-0.5,0-0.9,0.4-1.1,1.1h1.9v-0.4l-0.1-0.3C27.1,16.8,27,16.7,26.9,16.7L26.9,16.7z M39.6,19.6c0,0.4,0.2,0.7,0.5,0.7
	c0.3,0,0.6-0.1,0.8-0.4c0.3-0.3,0.4-0.8,0.4-1.2H41C40.1,18.7,39.6,19,39.6,19.6L39.6,19.6z M49.9,16.7c-0.4,0-0.8,0.3-0.9,0.7
	c-0.2,0.5-0.3,1-0.3,1.5c0,0.8,0.3,1.2,0.8,1.2c0.4,0,0.7-0.2,0.9-0.5c0.3-0.5,0.4-1,0.4-1.6C50.9,17.1,50.6,16.7,49.9,16.7
	L49.9,16.7z"/>
</svg>
