<?xml version="1.0" encoding="utf-8"?>
<!-- Generator: Adobe Illustrator 25.0.1, SVG Export Plug-In . SVG Version: 6.00 Build 0)  -->
<svg version="1.1" id="Layer_1" xmlns="http://www.w3.org/2000/svg" xmlns:xlink="http://www.w3.org/1999/xlink" x="0px" y="0px"
	 viewBox="0 0 824 186" style="enable-background:new 0 0 824 186;" xml:space="preserve">
<g id="tPiiJi.tif">
	<g>
		<path d="M1.4,2.7c0.5-0.1,1-0.3,1.5-0.3c13,0,26.1,0,39.1,0c0.3,0,0.6,0,1,0.1c0,59.9,0,119.7,0,179.7c-0.3,0-0.7,0.1-1.1,0.1
			c-13.1,0-26.2,0-39.2,0c-0.4,0-0.8,0-1.2-0.1C1.4,122.4,1.4,62.6,1.4,2.7z"/>
		<path d="M330,65.6c0-2.6,0-5,0-7.6c12.4,0,24.8,0,37.2,0c0,41.4,0,82.7,0,124.2c-12.4,0-24.7,0-37.2,0c0-2.5,0-5,0-7.7
			c-17.3,11-35.6,14.1-55,8.7c-14.4-4-26-12.2-34.8-24.1c-18.1-24.4-16.9-57.7,2.5-81.2C261.6,54.9,299.3,45.1,330,65.6z
			 M296.1,88.2c-5.8,0-11.3,1.4-16.5,4.1c-14.3,7.4-20.8,24.1-15.2,38.7c6.7,17.3,27.3,25.8,45,18.5c15.6-6.4,23.7-22.6,19.1-38
			C324.5,97.7,311.2,88.2,296.1,88.2z"/>
		<path d="M723.3,65.7c0-2.7,0-5.2,0-7.7c12.5,0,24.8,0,37.2,0c0,41.4,0,82.7,0,124.1c-12.3,0-24.7,0-37.2,0c0-2.5,0-4.9,0-7.6
			c-18.8,11.8-38.5,14.5-59.2,7.3c-14-4.9-25-13.8-33-26.3c-15.9-24.4-13.2-57,5.9-78.9C656.2,54.6,693.2,45.5,723.3,65.7z
			 M691.4,88.2c-8.1,0-13.8,1.5-19,4.3c-18.7,10.3-22.4,34.2-7.6,49.4c13,13.4,35.7,13.5,49,0.3c10.9-10.9,12.6-27.2,3.7-39.7
			C710.7,92.9,701.1,88.5,691.4,88.2z"/>
		<path d="M478.9,58c12.3,0,24.6,0,37,0c0,4.4,0,8.7,0,13.6c1-1.2,1.6-1.9,2.3-2.7c6.6-7.4,15-11.7,24.8-13.4
			c12.3-2.1,24.4-1.2,35.9,4c17.5,8,27.1,21.6,28.5,40.9c0.1,1.2,0.1,2.4,0.1,3.6c0,25.3,0,50.7,0,76c0,0.7,0,1.4,0,2.2
			c-12.5,0-24.8,0-37.4,0c0-0.7,0-1.4,0-2c0-21.5,0.1-43.1-0.1-64.6c0-3.7-0.7-7.6-1.8-11.1c-2.7-8.5-8.8-13.5-17.6-15
			c-10-1.7-19.3-0.1-26.9,7.4c-4.5,4.4-6.4,10.1-7.1,16.2c-0.2,1.6-0.2,3.2-0.2,4.8c0,20.7,0,41.4,0,62.1c0,0.7,0,1.5,0,2.3
			c-12.6,0-25,0-37.5,0C478.9,140.8,478.9,99.5,478.9,58z"/>
		<path d="M47.9,97.8c6.3-4.8,12.6-9.3,18.6-14.1c20.8-16.8,33.5-38.4,37.8-64.8c0.4-2.7,0.7-5.4,1-8.2c0.2-2.7,0.3-5.4,0.4-8.2
			c13.4,0,26.7,0,40.5,0c-0.5,39.6-14.5,73.6-42.2,102.1c18.9,25.8,37.9,51.6,57,77.6c-0.9,0-1.4,0.1-1.9,0.1c-15.8,0-31.7,0-47.5,0
			c-1.1,0-1.9-0.3-2.6-1.2C88.9,153.7,68.8,126.4,48.8,99C48.5,98.7,48.2,98.3,47.9,97.8z"/>
		<path d="M212,182.2c-13,0-25.9,0-38.9,0c0-59.9,0-119.7,0-179.7c13,0,25.9,0,38.9,0C212,62.4,212,122.2,212,182.2z"/>
		<path d="M386.8,58c12.7,0,25.4,0,38.1,0c0,5.2,0,10.2,0,15.8c9.9-11.1,22.2-15.5,36.5-15.9c0,12.2,0,24.1,0,35.9
			c-3.5,0.6-7.1,1-10.5,1.9c-7.1,1.8-13.3,5.2-18.4,10.5c-4.9,5.1-7.5,11.1-7.5,18.3c0,18.5,0,37,0,55.5c0,0.7,0,1.4,0,2.2
			c-12.8,0-25.4,0-38.2,0C386.8,140.8,386.8,99.5,386.8,58z"/>
		<path d="M800.1,138.2c13.1,0,23.5,10.4,23.5,23.5c0,12.9-10.5,23.3-23.5,23.3c-13.1,0-23.3-10.5-23.3-23.8
			C776.7,148.5,787.2,138.2,800.1,138.2z"/>
	</g>
</g>
</svg>
