<?xml version="1.0" encoding="utf-8"?>
<!-- Generator: Adobe Illustrator 25.0.1, SVG Export Plug-In . SVG Version: 6.00 Build 0)  -->
<svg version="1.1" id="Layer_1" xmlns="http://www.w3.org/2000/svg" xmlns:xlink="http://www.w3.org/1999/xlink" x="0px" y="0px"
	 viewBox="0 0 84 26" style="enable-background:new 0 0 84 26;" xml:space="preserve">
<style type="text/css">
	.st0{fill:#333333;}
</style>
<path id="Icon_simple-visa" class="st0" d="M60.9,1.3c-1.9-0.7-4-1.1-6-1c-6.6,0-11.3,3.3-11.3,8.1c0,3.5,3.3,5.5,5.9,6.7
	c2.6,1.2,3.5,2,3.5,3.1c0,1.6-2.1,2.4-4,2.4c-2.2,0.1-4.3-0.4-6.3-1.3l-0.8-0.4l-0.9,5.5c2.4,0.9,4.9,1.3,7.5,1.3
	c7,0,11.6-3.3,11.7-8.4c0.1-2.8-1.8-4.9-5.6-6.7c-2.3-1.1-3.8-1.9-3.8-3.1c0-1,1.2-2.1,3.8-2.1c1.7,0,3.4,0.3,5,0.9l0.6,0.3l0.9-5.3
	C61.1,1.2,60.9,1.3,60.9,1.3z M78.1,0.7h-5.2c-1.5-0.2-2.9,0.6-3.5,2l-9.9,22.5h7l1.4-3.7l8.6,0c0.2,0.9,0.8,3.7,0.8,3.7h6.2
	L78.1,0.7L78.1,0.7z M34.1,0.5h6.7l-4.2,24.6h-6.7L34.1,0.5L34.1,0.5z M17,14l0.7,3.4l6.6-16.8h7.1L20.8,25.2h-7.1L7.9,4.4
	C7.8,4.1,7.6,3.8,7.3,3.6C5.2,2.5,3,1.7,0.7,1.2l0.1-0.5h10.8c1.5,0.1,2.6,0.5,3,2.1L17,14L17,14z M69.8,16.5l2.7-6.9
	c0,0.1,0.6-1.4,0.9-2.3l0.5,2.1l1.5,7.1L69.8,16.5C69.8,16.5,69.8,16.5,69.8,16.5z"/>
</svg>
