<?xml version="1.0" encoding="utf-8"?>
<!-- Generator: Adobe Illustrator 25.0.1, SVG Export Plug-In . SVG Version: 6.00 Build 0)  -->
<svg version="1.1" id="Layer_1" xmlns="http://www.w3.org/2000/svg" xmlns:xlink="http://www.w3.org/1999/xlink" x="0px" y="0px"
	 viewBox="0 0 763 330" style="enable-background:new 0 0 763 330;" xml:space="preserve">
<style type="text/css">
	.st0{fill:#FFFFFF;}
</style>
<g id="cG8icR.tif">
	<g>
		<path class="st0" d="M727.2,330c-0.4-0.3-0.8-0.6-1.3-0.7c-12.8-2.5-18.7-11.2-20.4-23.3c-0.6-4.4-0.1-8.9-0.1-13.7
			c5.8,0,11.5,0,17.6,0c0.2,3.8,0.2,7.5,0.8,11.2c0.9,6.3,4.3,8.9,10.6,8.6c5-0.3,8-2.9,8.7-7.9c1.1-8-0.4-15.3-5.9-21.4
			c-3.4-3.8-7.3-7.3-10.9-10.9c-4-4-8.2-7.8-11.8-12.1c-8.8-10.4-10.9-22.6-8-35.6c2.6-11.6,10.5-18.5,22.7-19.8
			c4.9-0.5,10-0.2,14.8,0.9c10.8,2.6,16,10.5,18,21c0.3,1.6,0.7,3.2,1.1,4.8c0,3,0,6,0,9c-6.2,0-12.4,0-19.1,0
			c0-3.8,0.3-6.8-0.1-9.8c-0.6-5.7-4.1-8.5-9.8-8.4c-5.3,0.1-8.4,3.1-9,8.6c-0.8,6.8,1,12.9,5.5,18.1c3.3,3.7,6.8,7.4,10.5,10.6
			c10.4,8.9,19.3,18.7,22,32.8c0,4.7,0,9.3,0,14c-0.1,0.1-0.3,0.2-0.3,0.4c-2.2,13-9.8,20.9-22.6,23.6
			C735.9,330,731.6,330,727.2,330z"/>
		<path class="st0" d="M706.2,174.6c-0.8,0.2-1,0.3-1.1,0.3c-12.7,0.6-12.7,0.6-21.5-8.5c-31.5-32.6-62.9-65.2-94.4-97.7
			c-2.5-2.5-5.6-4.7-8.9-6.1c-22.9-9.8-46-19.4-69-29.1c-2.7-1.1-4.9-1.1-7.5,0c-11.1,4.9-22.3,9.7-33.4,14.5
			c-0.9,0.4-1.7,0.9-3.1,1.6c22.9,41.7,45.6,83.3,68.6,125.3c-4.6,0-8.3,0-12.4,0c-4.8-8.7-9.6-17.4-14.4-26.2
			c-17.4-31.7-34.8-63.3-52-95.1c-1.9-3.5-4.8-4.8-7.8-6.5c-19.6-11-39.2-21.9-58.7-33.1c-3.5-2-6-2-9.4,0.2
			c-13.8,9-27.7,17.8-41.8,26.4c-2.5,1.5-6,2-9,2.1c-20.3,0.4-40.6,0.7-60.9,0.8c-3.9,0-6.9,1.2-9.9,3.8
			c-47.7,41.3-95.5,82.5-143.2,123.9c-3.4,2.9-6.7,4.6-11.1,4.1c-3-0.3-6-0.1-8.9-0.1c-0.3-0.4-0.6-0.8-0.9-1.1
			c1.2-0.8,2.5-1.5,3.6-2.4C151,126.6,202.9,81.7,254.7,36.8c3.7-3.2,7.5-4.5,12.2-4.5c20-0.1,39.9-0.5,59.9-0.6
			c4.3,0,8-1.1,11.7-3.5c13.4-8.6,27.1-16.9,40.5-25.6c4.7-3,8.6-2.9,13.4-0.2c20.7,11.8,41.5,23.3,62.1,35.1
			c4,2.3,7.4,2.5,11.6,0.5c11.8-5.5,23.8-10.4,35.6-15.7c3.8-1.7,7.2-1.8,11-0.1c25,10.6,50,21,74.9,31.6c2.2,0.9,4.5,2.4,6.1,4.1
			c37,38.2,73.9,76.4,110.7,114.6C705.2,173.1,705.5,173.6,706.2,174.6z"/>
		<path class="st0" d="M228.4,205.1c8.2,0,16,0,24.2,0c6.1,24.2,12.2,48.3,18.3,72.4c0.2,0,0.4,0,0.6,0c0-23.9,0-47.9,0-72.2
			c5.9,0,11.5,0,17.3,0c0,41.1,0,82,0,123.3c-6.4,0-12.8,0-19.8,0c-7.4-28.4-14.9-56.9-22.4-85.5c-0.3,0-0.6,0-0.9,0
			c0,28.4,0,56.8,0,85.5c-6.1,0-11.5,0-17.3,0C228.4,287.7,228.4,246.6,228.4,205.1z"/>
		<path class="st0" d="M455,329.3c0-41.8,0-82.7,0-123.6c0.3-0.2,0.5-0.6,0.8-0.6c11.1,0,22.3-0.6,33.4,0.1
			c14.9,1,23.5,10.7,24.2,26.6c0.3,7.1,0.1,14.3,0.1,21.5c0,14.7,0.1,29.3,0,44c0,3.6-0.3,7.3-1,10.9c-2.1,11.3-8.7,18.6-20.1,19.8
			C480.2,329.3,467.7,329,455,329.3z M474.7,311.1c1.9,0,3.2-0.1,4.5,0c11.9,0.7,14.9-2.1,14.9-14.7c-0.1-19.7,0-39.3,0-59
			c0-2.5-0.1-5-0.5-7.5c-0.7-4.1-3.3-6.7-7.3-7c-3.7-0.3-7.5-0.1-11.5-0.1C474.7,252.4,474.7,281.5,474.7,311.1z"/>
		<path class="st0" d="M58.5,328.8c-6.1,0-12.4,0-19.2,0c-0.4-2.8-1.1-5.6-1.2-8.3c-0.2-9-0.1-18-0.3-27c0-3.2-0.2-6.3-0.7-9.4
			c-0.8-5-3.7-7.6-8.7-8.1c-2.9-0.2-5.9,0-9.4,0c0,17.8,0,35.2,0,52.8c-6.6,0-12.7,0-19.2,0c0-41,0-82.1,0-123.4
			c1.2-0.1,2.5-0.3,3.8-0.3c8.5,0,17,0,25.4,0c0.5,0,1,0,1.5,0c17.2,0.4,26.1,9.1,26.6,26.3c0.1,4.3,0.2,8.7,0,13
			c-0.5,8.9-3.2,16.7-12.3,21.4c10.5,4.7,12.1,13.8,12.4,23.4c0.2,8.3,0,16.7,0.2,25C57.4,318.7,58,323.5,58.5,328.8z M19.4,222.8
			c0,12,0,23.4,0,35c3.2,0,6,0.2,8.8,0c5.3-0.5,8.6-3.4,8.9-8.5c0.4-6.3,0.4-12.7,0-18.9c-0.4-4.9-3.4-7.3-8.4-7.5
			C25.7,222.7,22.7,222.8,19.4,222.8z"/>
		<path class="st0" d="M83.2,328.7c6.7-41.3,13.4-82.3,20.1-123.5c8.9,0,17.5,0,26.5,0c6.7,41.1,13.4,82.1,20.1,123.4
			c-6.4,0-12.6,0-19.4,0c-1.2-7.6-2.4-15.4-3.6-23.4c-7.3,0-14.4,0-21.9,0c-1.2,7.7-2.4,15.4-3.6,23.4
			C95.2,328.7,89.3,328.7,83.2,328.7z M107.2,287.6c5.9,0,11.4,0,17.3,0c-2.8-19.7-5.6-39-8.4-58.2c-0.3,0-0.5,0.1-0.8,0.1
			C112.6,248.7,109.9,267.9,107.2,287.6z"/>
		<path class="st0" d="M538.6,328.7c6.7-41.3,13.4-82.3,20.1-123.5c8.9,0,17.5,0,26.5,0c6.7,41.1,13.4,82.1,20.1,123.5
			c-6.4,0-12.7,0-19.4,0c-1.2-7.6-2.4-15.4-3.6-23.4c-7.4,0-14.5,0-21.9,0c-1.2,7.8-2.4,15.5-3.6,23.4
			C550.6,328.7,544.7,328.7,538.6,328.7z M579.9,287.7c-2.8-19.7-5.6-39.1-8.4-58.4c-0.3,0-0.5,0-0.8,0.1
			c-2.7,19.3-5.4,38.7-8.2,58.3C568.2,287.7,573.6,287.7,579.9,287.7z"/>
		<path class="st0" d="M336.1,205.2c4.3,15.2,8.6,30.1,12.9,45.1c0.3,0,0.6,0,0.9,0.1c4.3-15,8.6-30,12.9-45.2c6.2,0,12.2,0,18.7,0
			c-0.5,1.6-0.8,3.2-1.3,4.7c-6.7,20.6-13.5,41.1-20.1,61.7c-1.1,3.4-1.6,7.1-1.7,10.7c-0.2,13.5-0.1,27-0.1,40.5c0,1.8,0,3.6,0,5.8
			c-6.6,0-12.8,0-19.4,0c-0.1-1.6-0.2-3.3-0.2-4.9c0-14.2,0.1-28.3-0.1-42.5c0-2.9-0.5-6-1.4-8.8c-6.7-20.7-13.5-41.4-20.3-62.1
			c-0.5-1.6-0.9-3.2-1.4-5.1C322.5,205.2,329.1,205.2,336.1,205.2z"/>
		<path class="st0" d="M661,328.7c-6.9,0-13,0-19.6,0c0-1.9,0-3.5,0-5.1c0-13.8,0.1-27.7-0.1-41.5c0-3.4-0.6-7-1.6-10.2
			c-6.6-20.6-13.4-41.1-20.1-61.7c-0.5-1.6-0.9-3.2-1.4-5c6.9,0,13.5,0,20.5,0c4.3,15,8.6,30,12.9,45c0.3,0.1,0.6,0.1,0.9,0.2
			c4.3-15,8.6-30,13-45.2c6.2,0,12.3,0,18.9,0c-2.8,8.7-5.5,17.2-8.3,25.7c-4.5,13.8-9.1,27.5-13.5,41.3c-0.9,3-1.4,6.2-1.5,9.3
			c-0.2,13.8-0.1,27.7-0.1,41.5C661,324.8,661,326.5,661,328.7z"/>
		<path class="st0" d="M195.4,328.7c-6.4,0-12.6,0-19.1,0c0-41.2,0-82.1,0-123.4c6.3,0,12.5,0,19.1,0
			C195.4,246.4,195.4,287.4,195.4,328.7z"/>
	</g>
</g>
</svg>
